<?xml version="1.0" encoding="UTF-8"?>
<svg xmlns="http://www.w3.org/2000/svg" xmlns:xlink="http://www.w3.org/1999/xlink" width="128px" height="128px" viewBox="0 0 128 128" version="1.1">
<g id="surface1">
<path style=" stroke:none;fill-rule:nonzero;fill:rgb(76.470588%,55.686275%,94.509804%);fill-opacity:1;" d="M 72 112 C 72.046875 114.835938 73.589844 117.433594 76.054688 118.832031 C 78.523438 120.230469 81.542969 120.21875 84 118.800781 L 116 98.710938 C 118.445312 97.273438 119.945312 94.652344 119.945312 91.816406 C 119.945312 88.980469 118.445312 86.355469 116 84.921875 L 84 64.832031 C 81.542969 63.414062 78.523438 63.402344 76.054688 64.800781 C 73.589844 66.199219 72.046875 68.796875 72 71.632812 Z M 72 112 "/>
<path style=" stroke:none;fill-rule:nonzero;fill:rgb(76.470588%,55.686275%,94.509804%);fill-opacity:1;" d="M 96 8 L 38.03125 24 C 34.394531 24.921875 31.886719 28.25 32 32 L 32 76.398438 C 23.714844 74.707031 15.261719 78.410156 10.882812 85.648438 C 6.507812 92.886719 7.160156 102.09375 12.507812 108.644531 C 17.855469 115.195312 26.746094 117.675781 34.710938 114.835938 C 42.679688 112 48 104.457031 48 96 L 48 38.046875 L 88 26.625 L 88 52 L 104 44 L 104 16 C 104 11.582031 100.417969 8 96 8 Z M 96 8 "/>
</g>
</svg>
